<?xml version="1.0" encoding="UTF-8"?>
<svg width="150px" height="150px" viewBox="0 0 150 150" version="1.1" xmlns="http://www.w3.org/2000/svg" xmlns:xlink="http://www.w3.org/1999/xlink">
    <title>Group 84</title>
    <g id="Page-1" stroke="none" stroke-width="1" fill="none" fill-rule="evenodd">
        <g id="Artboard" transform="translate(-887.000000, -1019.000000)">
            <g id="Group-84" transform="translate(887.000000, 1019.000000)">
                <g id="Group-58-Copy" transform="translate(3.000000, 6.000000)">
                    <path d="M116.214745,65.4644869 L116.214745,120.606582 C116.214745,130.12493 109.196407,137.836093 100.539268,137.836093 L53.5128363,137.836093 C44.8556977,137.836093 37.837359,130.12493 37.837359,120.606582 L37.837359,22.6348487 C37.837359,13.1165007 44.8556977,5.405337 53.5128363,5.405337 L99.9987345,5.405337 C108.95459,5.405337 116.214745,12.6654924 116.214745,21.621348 L116.214745,65.4644869 L116.214745,65.4644869 Z" id="Path-Copy-10" fill="#F0F0F0"></path>
                    <path d="M72.9720495,37.837359 L72.9720495,70.269381 C72.9720495,73.2546662 75.3921013,75.674718 78.3773865,75.674718 L137.836094,75.674718 C140.821379,75.674718 143.24143,73.2546662 143.24143,70.269381 L143.24143,37.837359 C143.24143,34.8520738 140.821379,32.432022 137.836094,32.432022 L78.3773865,32.432022 C75.3921013,32.432022 72.9720495,34.8520738 72.9720495,37.837359 Z" id="Rectangle-Copy-19" fill="#FFAB93" transform="translate(108.106740, 54.053370) scale(-1, 1) translate(-108.106740, -54.053370) "></path>
                    <circle id="Oval" fill="#F2533C" cx="74.3233837" cy="120.268748" r="6.75667125"></circle>
                    <path d="M64.864044,9.45933975 L86.485392,9.45933975 L64.864044,9.45933975 Z" id="Rectangle-Copy-17" stroke="#717375" stroke-width="5.405337" stroke-linejoin="round"></path>
                    <path d="M116.214745,77.8417688 L116.214745,91.890729 L116.214745,119.930915 C116.214745,129.822531 108.712383,137.836093 99.4582008,137.836093 L49.1885667,137.836093 C39.9343841,137.836093 32.432022,129.822531 32.432022,119.930915 L32.432022,17.9051788 C32.432022,8.01356225 39.9343841,0 49.1885667,0 C62.0562577,0 71.707026,0 78.1408715,0 L99.9987345,0 C106.773274,0 112.57754,4.1542378 115.003064,10.0542458 C115.523722,11.3207309 115.927616,15.0235551 116.214745,21.1627185 L116.214745,25.643258" id="Path" stroke="#717375" stroke-width="5.405337" stroke-linecap="round"></path>
                    <g id="Group-22" stroke-linecap="round" transform="translate(0.000000, 59.458707)">
                        <g id="user-1">
                            <path d="M31.6314221,35.776892 C38.1803616,35.776892 42.5323219,27.3995321 43.1674533,25.2775876 C43.746026,23.2381614 44.2864852,22.090094 44.2864852,18.7640605 C44.2864852,15.438027 44.1273615,14.6080791 43.3049174,11.6214744 C43.3049174,11.6214744 42.0288826,3.22113202 32.432022,3.22113202 C22.8351614,3.22113202 19.9579294,11.6214744 19.9579294,11.6214744 C19.1354855,14.6080791 18.9799222,16.5532519 18.9799222,18.1795142 C18.9799222,19.8057765 19.1354855,22.837108 20.0953936,25.2775876 C20.7305246,27.3995321 25.0824851,35.776892 31.6314221,35.776892 Z" id="fill" fill="#F0F0F0"></path>
                            <path d="M38.7064546,37.881415 C40.2032426,38.9374459 40.6011156,40.1302682 46.250562,41.8719892 C51.9000085,43.6137102 57.2873423,47.2240623 58.674057,53.4577722 C58.6795049,53.4822621 58.6849303,53.5066676 58.6903332,53.5309887 L58.6903264,53.5309902 C59.2896305,56.2287416 57.5885028,58.9015331 54.8907514,59.5008371 C54.7722343,59.5271656 54.6527982,59.5491721 54.5326803,59.5668128 C49.3897875,60.3221053 42.5994523,60.7942737 34.1616746,60.9833179 C24.9689174,61.189277 17.1155614,60.7303697 10.6016066,59.606596 L10.6016111,59.6065695 C7.92939211,59.1455639 6.13684944,56.6055835 6.59785503,53.9333645 C6.625492,53.7731668 6.6610679,53.6144405 6.70445129,53.4577722 C6.70445129,53.4577722 6.70445129,53.4577722 6.70445129,53.4577722 C8.59734703,46.6220483 13.5348748,43.6172455 19.1279463,41.8719892 C23.9551042,40.3653927 26.491111,37.881415 26.491111,37.881415 L35.4540046,35.776892 L38.7064546,37.881415 Z" id="fill" fill="#F0F0F0"></path>
                            <path d="M29.2019635,36.825999 C36.5029013,36.825999 41.3545862,27.2553402 42.0626481,24.8311389 C42.7076568,22.5012101 43.3101756,21.1896083 43.3101756,17.3898035 C43.3101756,13.5899987 43.1327801,12.6418304 42.2158969,9.22980384 C42.2158969,9.22980384 39.9008076,0.76152473 29.2019637,0.76152473 C18.5031198,0.76152473 16.1880332,9.22980384 16.1880332,9.22980384 C15.2711501,12.6418304 15.0977239,14.86408 15.0977239,16.7219925 C15.0977239,18.579905 15.2711501,22.0430294 16.341282,24.8311389 C17.0493436,27.2553402 21.9010286,36.825999 29.2019635,36.825999 Z" id="Path" stroke="#717375" stroke-width="5.405337" stroke-linecap="round"></path>
                            <path d="M35.9046772,34.768527 C37.5472899,35.9235561 37.9839257,37.2282002 44.18377,39.1331999 C50.3836142,41.0381996 56.2958095,44.9870063 57.817625,51.8050989 C57.817625,51.8050989 57.817625,51.8050989 57.817625,51.8050989 C58.4843709,54.7922779 56.6032883,57.7543692 53.6161093,58.4211151 C53.4808127,58.4513136 53.3444305,58.476425 53.2072508,58.4963963 C47.5712042,59.3169204 40.141161,59.8301642 30.9171216,60.0361313 C20.8198668,60.2615968 12.1950969,59.758585 5.0428118,58.5270959 L5.04280931,58.5271103 C2.12338396,58.0244401 0.164216813,55.2502835 0.66688701,52.3308582 C0.697383596,52.1537391 0.736762914,51.9782646 0.784875939,51.8050989 C0.784875939,51.8050989 0.784875939,51.8050989 0.784875939,51.8050989 C2.86218721,44.3285561 8.280754,41.0420663 14.418731,39.1331999 C19.7161752,37.4853667 22.4992527,34.768527 22.4992527,34.768527" id="Path" stroke="#717375" stroke-width="5.405337" stroke-linecap="round"></path>
                        </g>
                    </g>
                    <path d="M67.5667125,32.432022 L67.5667125,70.269381 C67.5667125,73.2546662 69.9867643,75.674718 72.9720495,75.674718 L133.106424,75.674718 L133.106424,75.674718 L137.836093,75.674718 C140.821379,75.674718 143.24143,73.2546662 143.24143,70.269381 L143.24143,32.432022 C143.24143,29.4467368 140.821379,27.026685 137.836093,27.026685 L72.9720495,27.026685 C69.9867643,27.026685 67.5667125,29.4467368 67.5667125,32.432022 Z" id="Rectangle-Copy-16" stroke="#E64C35" stroke-width="5.405337" stroke-linecap="round" stroke-linejoin="round" transform="translate(105.404071, 51.350701) scale(-1, 1) translate(-105.404071, -51.350701) "></path>
                    <path d="M83.7827235,44.5940303 L110.809409,44.5940303 L83.7827235,44.5940303 Z" id="Rectangle-Copy-17" stroke="#E64C35" stroke-width="5.405337" stroke-linejoin="round"></path>
                    <path d="M83.7827235,58.1073728 L121.620082,58.1073728 L83.7827235,58.1073728 Z" id="Rectangle-Copy-20" stroke="#E64C35" stroke-width="5.405337" stroke-linejoin="round"></path>
                </g>
                <rect id="Rectangle" x="0" y="0" width="150" height="150"></rect>
            </g>
        </g>
    </g>
</svg>