<?xml version="1.0" encoding="UTF-8"?>
<svg width="150px" height="150px" viewBox="0 0 150 150" version="1.1" xmlns="http://www.w3.org/2000/svg" xmlns:xlink="http://www.w3.org/1999/xlink">
    <title>Global CSS</title>
    <g id="Page-1" stroke="none" stroke-width="1" fill="none" fill-rule="evenodd">
        <g id="Global-CSS">
            <rect id="Rectangle" x="0" y="0" width="150" height="150"></rect>
            <g id="Group-99-Copy" transform="translate(26.000000, 4.000000)">
                <circle id="Oval" fill="#FFAB93" cx="32.3385267" cy="32.3385267" r="25.6477971"></circle>
                <path d="M98.1307018,40.144378 L98.1307018,128.517766 L98.1307018,128.517766 C98.1307018,136.372311 92.3391656,142.735566 85.1952911,142.735566 L46.389059,142.735566 C39.2451845,142.735566 33.4536483,136.372311 33.4536483,128.517766 L33.4536483,64.2350799 L39.4315003,62.207531 C51.9553413,57.9597344 61.1029424,47.1339945 63.2014597,34.0769429 L64.0185203,28.9931619 L64.0185203,28.9931619 L69.1055131,28.9931619 L86.9794857,28.9931619 C93.1381323,28.9931619 98.1307018,33.9857314 98.1307018,40.144378 Z" id="Path-Copy-14" fill="#F0F0F0"></path>
                <circle id="Oval-Copy-7" fill="#F2533C" cx="63.5619318" cy="128.238985" r="5.57560806"></circle>
                <path d="M98.1307018,60.214191 L98.1307018,129.354107 C98.1307018,136.744483 92.1396184,142.735566 84.7492425,142.735566 L42.3746212,142.735566 C34.9842453,142.735566 28.9931619,136.744483 28.9931619,129.354107 L28.9931619,42.3746212 C28.9931619,34.9842453 34.9842453,28.9931619 42.3746212,28.9931619 C54.1399225,28.9931619 62.9638985,28.9931619 68.8465491,28.9931619" id="Path" stroke="#717375" stroke-width="4.46048644" stroke-linecap="round" transform="translate(63.561932, 85.864364) scale(-1, 1) translate(-63.561932, -85.864364) "></path>
                <g id="Group-96" transform="translate(46.835108, 73.598026)" stroke="#717375" stroke-linecap="round" stroke-linejoin="round" stroke-width="4.46048644">
                    <polyline id="Path" points="22.3024322 0 31.2234051 7.80585128 22.3024322 15.6117026"></polyline>
                    <polyline id="Path" points="8.92097289 0 0 7.80585128 8.92097289 15.6117026"></polyline>
                </g>
                <g id="Group-97" stroke="#E64C35" stroke-linecap="round" stroke-linejoin="round" stroke-width="4.46048644">
                    <path d="M28.9931619,0.322146243 C44.0277271,16.1942916 44.0277271,41.7920321 28.9931619,57.6641775" id="Path"></path>
                    <path d="M28.9931619,57.6641775 C13.9585967,41.7920321 13.9585967,16.1942916 28.9931619,0.322146243" id="Path"></path>
                    <path d="M28.9931619,0 C45.0424877,0 57.9863238,12.9438361 57.9863238,28.9931619 C57.9863238,45.0424877 45.0424877,57.9863238 28.9931619,57.9863238" id="Path"></path>
                    <path d="M28.9931619,57.9863238 C12.9438361,57.9863238 0,45.0424877 0,28.9931619 C0,12.9438361 12.9438361,0 28.9931619,0" id="Path"></path>
                    <line x1="1.64294584" y1="19.3287746" x2="56.3433779" y2="19.3287746" id="Path"></line>
                    <line x1="1.64294584" y1="38.6575492" x2="56.3433779" y2="38.6575492" id="Path"></line>
                </g>
            </g>
        </g>
    </g>
</svg>