<?xml version="1.0" encoding="UTF-8"?>
<svg width="150px" height="150px" viewBox="0 0 150 150" version="1.1" xmlns="http://www.w3.org/2000/svg" xmlns:xlink="http://www.w3.org/1999/xlink">
    <title>Global CSS</title>
    <g id="Global-CSS" stroke="none" stroke-width="1" fill="none" fill-rule="evenodd">
        <g transform="translate(25.000000, 3.000000)" id="Group-99-Copy">
            <g id="Group" transform="translate(7.000000, 1.000000)">
                <path d="M83.0068378,13.8303675 L83.0068378,123.381839 L83.0068378,123.381839 C83.0068378,133.118672 75.7536559,141.006838 66.8068378,141.006838 L18.2068378,141.006838 C9.26001968,141.006838 2.0068378,133.118672 2.0068378,123.381839 L2.0068378,43.6942428 L9.49335714,41.1808055 C25.1779171,35.9150533 36.6341546,22.4949982 39.2622877,6.30891275 L40.2855549,0.0068381 L40.2855549,0.0068381 L46.6563834,0.0068381 L69.0413206,0.0068381 C76.7542628,0.0068381 83.0068378,6.19584303 83.0068378,13.8303675 Z" id="Path-Copy-14" fill="#F0F0F0" fill-rule="nonzero"></path>
                <circle id="Oval-Copy-7" fill="#F2533C" fill-rule="nonzero" cx="42.5068378" cy="122.506838" r="6.5"></circle>
                <path d="M86.0068378,38.7097751 L86.0068378,124.418603 C86.0068378,133.580033 78.5545453,141.006838 69.3616766,141.006838 L16.651999,141.006838 C7.45913033,141.006838 0.0068378,133.580033 0.0068378,124.418603 L0.0068378,16.5950734 C0.0068378,7.43364401 7.45913033,0.0068381 16.651999,0.0068381 C31.2868257,0.0068381 42.2629457,0.0068381 49.580359,0.0068381" id="Path" stroke="#717375" stroke-width="4.46048644" stroke-linecap="round" transform="translate(43.006838, 70.506838) scale(-1, 1) translate(-43.006838, -70.506838) "></path>
                <g id="Group-96" stroke-linecap="round" stroke-linejoin="round" transform="translate(23.006838, 70.006838)" stroke="#717375" stroke-width="4.46048644">
                    <polyline id="Path" points="27.1810892 0 38.053525 9.7573141 27.1810892 19.5146282"></polyline>
                    <polyline id="Path" points="10.8724357 0 0 9.7573141 10.8724357 19.5146282"></polyline>
                </g>
            </g>
            <circle id="Oval" fill="#FFAB93" fill-rule="nonzero" cx="32.3385267" cy="32.3385267" r="25.6477971"></circle>
            <g id="Group-97" stroke-linecap="round" stroke-linejoin="round" stroke="#E64C35" stroke-width="4.46048644">
                <path d="M28.9931619,0.322146243 C44.0277271,16.1942916 44.0277271,41.7920321 28.9931619,57.6641775" id="Path"></path>
                <path d="M28.9931619,57.6641775 C13.9585967,41.7920321 13.9585967,16.1942916 28.9931619,0.322146243" id="Path"></path>
                <path d="M28.9931619,0 C45.0424877,0 57.9863238,12.9438361 57.9863238,28.9931619 C57.9863238,45.0424877 45.0424877,57.9863238 28.9931619,57.9863238" id="Path"></path>
                <path d="M28.9931619,57.9863238 C12.9438361,57.9863238 0,45.0424877 0,28.9931619 C0,12.9438361 12.9438361,0 28.9931619,0" id="Path"></path>
                <line x1="1.64294584" y1="19.3287746" x2="56.3433779" y2="19.3287746" id="Path"></line>
                <line x1="1.64294584" y1="38.6575492" x2="56.3433779" y2="38.6575492" id="Path"></line>
            </g>
        </g>
    </g>
</svg>