<?xml version="1.0" encoding="UTF-8"?>
<svg width="150px" height="150px" viewBox="0 0 150 150" version="1.1" xmlns="http://www.w3.org/2000/svg" xmlns:xlink="http://www.w3.org/1999/xlink">
    <title>Types</title>
    <g id="Page-1" stroke="none" stroke-width="1" fill="none" fill-rule="evenodd">
        <g id="Artboard" transform="translate(-1296.000000, -1011.000000)">
            <g id="Types" transform="translate(1296.000000, 1011.000000)">
                <rect id="Rectangle-Copy-61" x="0" y="0" width="150" height="150"></rect>
                <g id="Group-77" transform="translate(4.000000, 11.000000)">
                    <path d="M105.049494,64.9926099 L105.049494,113.70414 C105.049494,122.112476 98.8496205,128.924379 91.2020607,128.924379 L49.6597608,128.924379 C42.012201,128.924379 35.8123275,122.112476 35.8123275,113.70414 L35.8123275,22.3827047 C35.8123275,13.9743681 42.012201,7.1624655 49.6597608,7.1624655 L90.724563,7.1624655 C98.6360039,7.1624655 105.049494,13.5759556 105.049494,21.4873965 L105.049494,64.9926099 L105.049494,64.9926099 Z" id="Path-Copy-14" fill="#F0F0F0"></path>
                    <path d="M59.6872125,17.9061637 L78.7871205,17.9061637 L59.6872125,17.9061637 Z" id="Rectangle-Copy-17" stroke="#717375" stroke-width="4.774977" stroke-linejoin="round"></path>
                    <circle id="Oval-Copy-7" fill="#F2533C" cx="68.0434223" cy="113.405704" r="5.96872125"></circle>
                    <path d="M90.724563,7.1624655 C96.709069,7.1624655 101.836452,10.8322441 103.979116,16.0442045 C104.439057,17.1629945 104.795849,20.4340025 105.049494,25.8572285 L105.049494,32.2027446 L105.049494,88.3370745 L105.049494,113.107268 C105.049494,121.845343 98.422043,128.924379 90.2470653,128.924379 L45.8397792,128.924379 C37.6648015,128.924379 31.0373505,121.845343 31.0373505,113.107268 C31.0373505,109.642552 31.0373505,107.086566 31.0373505,105.439309 M31.0373505,55.22256 C31.0373505,53.621442 31.0373505,54.4859997 31.0373505,53.041256 C31.0373505,46.3608829 31.0373505,36.3403231 31.0373505,22.9795768 C31.0373505,14.2415015 37.6648015,7.1624655 45.8397792,7.1624655 C63.8590533,7.1624655 75.4360191,7.1624655 80.5706766,7.1624655" id="Shape" stroke="#717375" stroke-width="4.774977" stroke-linecap="round"></path>
                    <g id="Group-76" transform="translate(0.000000, 57.299724)">
                        <path d="M4.774977,9.549954 L4.774977,42.974793 C4.774977,45.61194 6.91280702,47.74977 9.549954,47.74977 L50.4143777,47.74977 L50.4143777,47.74977 L54.9122355,47.74977 C57.5493825,47.74977 59.6872125,45.61194 59.6872125,42.974793 L59.6872125,9.549954 C59.6872125,6.91280702 57.5493825,4.774977 54.9122355,4.774977 L9.549954,4.774977 C6.91280702,4.774977 4.774977,6.91280702 4.774977,9.549954 Z" id="Rectangle-Copy-21" fill="#FFAB93" transform="translate(32.231095, 26.262374) scale(-1, 1) translate(-32.231095, -26.262374) "></path>
                        <path d="M0,4.774977 L0,42.974793 C3.22957361e-16,45.61194 2.13783002,47.74977 4.774977,47.74977 L49.7748719,47.74977 L49.7748719,47.74977 L54.9122355,47.74977 C57.5493825,47.74977 59.6872125,45.61194 59.6872125,42.974793 L59.6872125,4.774977 C59.6872125,2.13783002 57.5493825,-4.84436041e-16 54.9122355,0 L4.774977,0 C2.13783002,4.84436041e-16 -3.22957361e-16,2.13783002 0,4.774977 Z" id="Rectangle-Copy-16" stroke="#E64C35" stroke-width="4.774977" stroke-linecap="round" stroke-linejoin="round" transform="translate(29.843606, 23.874885) scale(-1, 1) translate(-29.843606, -23.874885) "></path>
                        <path d="M11.9374425,20.2936523 L31.0373505,20.2936523 L11.9374425,20.2936523 Z" id="Rectangle-Copy-20" stroke="#E64C35" stroke-width="4.774977" stroke-linejoin="round"></path>
                        <path d="M11.9374425,32.2310948 L45.3622815,32.2310948 L11.9374425,32.2310948 Z" id="Rectangle-Copy-22" stroke="#E64C35" stroke-width="4.774977" stroke-linejoin="round"></path>
                    </g>
                    <g id="Group-76" transform="translate(81.174609, 0.000000)">
                        <path d="M4.774977,9.549954 L4.774977,42.974793 C4.774977,45.61194 6.91280702,47.74977 9.549954,47.74977 L50.4143777,47.74977 L50.4143777,47.74977 L54.9122355,47.74977 C57.5493825,47.74977 59.6872125,45.61194 59.6872125,42.974793 L59.6872125,9.549954 C59.6872125,6.91280702 57.5493825,4.774977 54.9122355,4.774977 L9.549954,4.774977 C6.91280702,4.774977 4.774977,6.91280702 4.774977,9.549954 Z" id="Rectangle-Copy-21" fill="#F0F0F0" transform="translate(32.231095, 26.262374) scale(-1, 1) translate(-32.231095, -26.262374) "></path>
                        <path d="M0,4.774977 L0,42.974793 C3.22957361e-16,45.61194 2.13783002,47.74977 4.774977,47.74977 L49.7748719,47.74977 L49.7748719,47.74977 L54.9122355,47.74977 C57.5493825,47.74977 59.6872125,45.61194 59.6872125,42.974793 L59.6872125,4.774977 C59.6872125,2.13783002 57.5493825,-4.84436041e-16 54.9122355,0 L4.774977,0 C2.13783002,4.84436041e-16 -3.22957361e-16,2.13783002 0,4.774977 Z" id="Rectangle-Copy-16" stroke="#717375" stroke-width="4.774977" stroke-linejoin="round" transform="translate(29.843606, 23.874885) scale(-1, 1) translate(-29.843606, -23.874885) "></path>
                        <path d="M11.9374425,20.2936523 L31.0373505,20.2936523 L11.9374425,20.2936523 Z" id="Rectangle-Copy-20" stroke="#717375" stroke-width="4.774977" stroke-linejoin="round"></path>
                        <path d="M11.9374425,32.2310948 L45.3622815,32.2310948 L11.9374425,32.2310948 Z" id="Rectangle-Copy-22" stroke="#717375" stroke-width="4.774977" stroke-linejoin="round"></path>
                    </g>
                </g>
            </g>
        </g>
    </g>
</svg>